<?xml version="1.0" encoding="utf-8"?>
<svg viewBox="0 0 500 500" xmlns="http://www.w3.org/2000/svg">
  <path style="fill:#E6C275;" d="M 243.029 367.299 C 243.029 391.724 192.242 411.526 129.592 411.526 C 66.942 411.526 16.155 391.725 16.155 367.299 L 16.155 285.407 L 243.029 285.407 L 243.029 367.299 Z"/>
  <path style="fill:#FFD782;" d="M 243.029 285.407 C 243.029 309.832 192.242 329.634 129.592 329.634 C 66.942 329.634 16.155 309.833 16.155 285.407 L 16.155 203.515 L 243.029 203.515 L 243.029 285.407 Z"/>
  <g transform="matrix(1, 0, 0, 1, 10.07886, 17.85799)">
    <path style="fill:#E6C275;" d="M232.95,185.656c0,24.425-50.787,44.227-113.437,44.227S6.076,210.083,6.076,185.656v-81.892H232.95 V185.656z"/>
    <path style="fill:#E6C275;" d="M279.05,349.441c0,24.425,50.787,44.227,113.437,44.227s113.437-19.801,113.437-44.227v-81.892 H279.05V349.441z"/>
  </g>
  <path style="fill:#FFD782;" d="M 289.129 285.407 C 289.129 309.832 339.916 329.634 402.566 329.634 C 465.216 329.634 516.003 309.833 516.003 285.407 L 516.003 203.515 L 289.129 203.515 L 289.129 285.407 Z"/>
  <path style="fill:#E6C275;" d="M 289.129 203.514 C 289.129 227.939 339.916 247.741 402.566 247.741 C 465.216 247.741 516.003 227.94 516.003 203.514 L 516.003 121.622 L 289.129 121.622 L 289.129 203.514 Z"/>
  <g transform="matrix(1, 0, 0, 1, 10.07886, 17.85799)">
    <ellipse style="fill:#FFD782;" cx="392.488" cy="103.767" rx="113.443" ry="44.226"/>
    <ellipse style="fill:#FFD782;" cx="119.51" cy="103.767" rx="113.443" ry="44.226"/>
  </g>
  <path style="opacity:0.1;enable-background:new    ;" d="M 121.144 180.416 L 121.144 411.403 C 123.933 411.483 126.75 411.525 129.591 411.525 C 192.24 411.525 243.028 391.724 243.028 367.298 L 243.028 285.406 L 243.028 203.514 L 243.028 121.623 C 243.028 116.173 240.493 110.954 235.869 106.133 C 213.059 108.328 191.89 112.989 174.425 119.799 C 128.067 137.873 121.144 165.536 121.144 180.416 Z"/>
  <path style="opacity:0.1;enable-background:new    ;" d="M 411.013 180.416 L 411.013 411.403 C 408.224 411.483 405.407 411.525 402.566 411.525 C 339.917 411.525 289.129 391.724 289.129 367.298 L 289.129 285.406 L 289.129 203.514 L 289.129 121.623 C 289.129 116.173 291.664 110.954 296.288 106.133 C 319.098 108.328 340.267 112.989 357.732 119.799 C 404.091 137.873 411.013 165.536 411.013 180.416 Z"/>
  <path style="fill:#E6C275;" d="M 379.515 426.094 C 379.515 450.519 328.728 470.321 266.078 470.321 C 203.428 470.321 152.641 450.52 152.641 426.094 L 152.641 344.202 L 379.516 344.202 L 379.516 426.094 L 379.515 426.094 Z"/>
  <path style="fill:#FFD782;" d="M 379.515 344.202 C 379.515 368.627 328.728 388.429 266.078 388.429 C 203.428 388.429 152.641 368.628 152.641 344.202 L 152.641 262.31 L 379.516 262.31 L 379.516 344.202 L 379.515 344.202 Z"/>
  <path style="fill:#E6C275;" d="M 379.515 262.309 C 379.515 286.734 328.728 306.536 266.078 306.536 C 203.428 306.536 152.641 286.735 152.641 262.309 L 152.641 180.417 L 379.516 180.417 L 379.516 262.309 L 379.515 262.309 Z"/>
  <ellipse style="fill:#FFD782;" cx="266.083" cy="180.416" rx="113.443" ry="44.226"/>
  <path d="M 390.031 67.649 C 358.994 67.649 329.698 72.406 307.538 81.047 C 283.051 90.594 269.565 104.209 269.565 119.387 C 269.565 121.798 269.898 124.167 270.56 126.488 C 265.208 126.187 259.837 126.033 254.496 126.033 C 249.079 126.033 243.719 126.186 238.436 126.472 C 239.095 124.156 239.426 121.793 239.426 119.387 C 239.426 98.797 217.158 87.004 200.557 80.713 C 164.738 67.14 124.078 65.154 86.303 69.474 C 82.013 69.965 78.933 73.84 79.423 78.132 C 79.914 82.422 83.782 85.498 88.081 85.012 C 123.473 81.005 162.266 82.556 195.773 95.619 C 213.314 102.458 223.787 111.344 223.787 119.389 C 223.787 122.196 222.522 125.109 220.021 128.071 C 219.93 128.081 219.842 128.095 219.751 128.105 C 214.803 128.711 209.874 129.461 204.969 130.354 C 204.728 130.399 204.489 130.446 204.249 130.491 C 178.787 135.253 158.338 143.535 146.3 154.123 C 145.38 154.215 144.46 154.305 143.534 154.388 C 135.363 155.118 127.165 155.488 118.961 155.488 C 89.973 155.488 57.648 152.236 31.633 138.376 C 20.955 132.688 14.657 126.208 14.167 120.149 C 14.147 119.895 14.136 119.641 14.136 119.389 C 14.136 108.884 31.319 97.564 57.912 90.549 C 62.088 89.447 64.58 85.169 63.478 80.994 C 62.376 76.818 58.097 74.327 53.923 75.428 C 18.698 84.717 -1.504 100.741 -1.504 119.387 L -1.504 200.708 L -1.504 282.029 L -1.504 363.35 C -1.504 396.954 60.563 415.088 118.961 415.088 C 123.986 415.088 129.025 414.945 134.03 414.689 L 134.03 421.735 C 134.03 455.339 196.097 473.473 254.495 473.473 C 285.532 473.473 314.828 468.716 336.988 460.075 C 361.475 450.528 374.961 436.912 374.961 421.735 L 374.961 414.689 C 379.966 414.945 385.006 415.088 390.03 415.088 C 421.067 415.088 450.363 410.331 472.523 401.69 C 497.01 392.143 510.496 378.527 510.496 363.35 L 510.496 282.029 L 510.496 200.708 L 510.496 119.387 C 510.496 85.783 448.429 67.649 390.031 67.649 Z M 494.857 145.739 L 494.857 200.708 C 494.857 208.753 484.384 217.638 466.843 224.478 C 446.449 232.429 419.17 236.807 390.03 236.807 C 387.772 236.807 385.51 236.771 383.25 236.715 C 382.595 236.699 381.941 236.676 381.286 236.657 C 379.577 236.604 377.872 236.535 376.17 236.451 C 375.767 236.431 375.364 236.412 374.961 236.391 L 374.961 177.773 C 374.961 175.33 374.624 172.973 373.993 170.695 C 374.116 170.701 374.24 170.705 374.363 170.712 C 407.105 172.407 441.736 169.733 472.523 157.729 C 480.382 154.663 488.113 150.852 494.857 145.739 Z M 331.308 364.183 C 307.073 373.632 280.354 376.512 254.496 376.512 C 225.356 376.512 198.077 372.133 177.683 364.183 C 160.142 357.344 149.669 348.458 149.669 340.413 L 149.669 285.584 C 149.739 285.636 149.813 285.685 149.884 285.737 C 181.011 308.788 222.915 311.492 260.294 310.773 C 293.036 310.144 331.946 305.918 359.028 285.656 C 359.124 285.584 359.227 285.515 359.322 285.443 L 359.322 340.412 C 359.322 340.915 359.281 341.421 359.2 341.93 C 357.986 349.559 347.752 357.771 331.308 364.183 Z M 127.536 317.989 C 124.678 318.08 121.82 318.128 118.961 318.128 C 58.964 318.128 14.134 299.07 14.134 282.029 L 14.134 227.2 C 14.204 227.252 14.279 227.302 14.349 227.353 C 14.966 227.811 15.595 228.264 16.243 228.71 C 16.293 228.744 16.346 228.778 16.396 228.812 C 38.126 243.552 66.356 248.751 92.031 251.17 C 105.591 252.447 119.224 252.746 132.828 252.107 C 133.228 252.088 133.632 252.081 134.031 252.061 L 134.031 259.092 L 134.031 317.714 C 133.765 317.729 133.497 317.74 133.23 317.754 C 131.334 317.85 129.435 317.929 127.536 317.989 Z M 16.244 147.39 C 38.102 162.538 67.233 167.61 93.19 169.955 C 106.966 171.2 120.818 171.438 134.629 170.71 C 134.765 170.703 134.901 170.699 135.038 170.69 C 134.372 173.005 134.032 175.368 134.032 177.771 L 134.032 236.389 C 133.629 236.411 133.225 236.43 132.821 236.449 C 104.364 237.848 74.771 235.567 47.632 226.41 C 39.038 223.511 30.311 219.877 23.066 214.316 C 18.851 211.081 14.135 206.43 14.135 200.707 L 14.135 145.878 C 14.205 145.93 14.28 145.98 14.349 146.031 C 14.974 146.495 15.605 146.948 16.244 147.39 Z M 288.97 128.07 C 286.469 125.107 285.204 122.194 285.204 119.387 C 285.204 111.342 295.677 102.457 313.218 95.617 C 333.612 87.666 360.891 83.288 390.031 83.288 C 419.171 83.288 446.45 87.667 466.844 95.617 C 484.385 102.456 494.858 111.342 494.858 119.387 C 494.858 127.432 484.385 136.317 466.844 143.157 C 446.45 151.108 419.171 155.486 390.031 155.486 C 380.954 155.486 371.877 155.036 362.845 154.136 C 357.402 149.347 350.342 145.148 342.124 141.554 C 341.71 141.371 341.29 141.189 340.869 141.009 C 340.842 140.998 340.816 140.986 340.789 140.975 C 326.749 134.966 309.033 130.502 288.97 128.07 Z M 284.358 143.279 C 307.076 145.784 336.78 150.39 353.816 167.215 C 353.839 167.238 353.866 167.254 353.89 167.277 C 353.933 167.319 353.977 167.359 354.02 167.399 C 357.466 170.862 359.321 174.392 359.321 177.772 C 359.321 188.395 341.047 200.161 313.847 207.049 C 309.66 208.109 307.127 212.362 308.186 216.548 C 309.246 220.736 313.502 223.267 317.685 222.209 C 328.996 219.345 340.218 215.518 350.458 209.865 C 353.29 208.301 356.036 206.573 358.644 204.658 C 358.868 204.493 359.101 204.332 359.321 204.166 L 359.321 259.093 C 359.321 259.596 359.28 260.102 359.199 260.611 C 357.984 268.241 347.752 276.452 331.306 282.863 C 307.062 292.315 280.361 295.192 254.494 295.192 C 225.354 295.192 198.075 290.813 177.681 282.863 C 160.14 276.024 149.667 267.138 149.667 259.093 L 149.667 204.264 C 149.737 204.316 149.812 204.366 149.882 204.417 C 178.831 225.86 219.585 229.51 254.494 229.51 C 264.823 229.51 275.177 228.983 285.447 227.876 C 294.208 226.931 294.621 213.763 285.82 212.384 C 285.156 212.28 284.47 212.251 283.769 212.326 C 274.277 213.351 264.427 213.871 254.493 213.871 C 225.353 213.871 198.074 209.492 177.68 201.542 C 160.14 194.704 149.667 185.818 149.666 177.773 C 149.665 164.331 171.534 155.179 181.836 151.602 C 213.687 140.544 251.16 139.618 284.358 143.279 Z M 118.961 399.449 C 58.964 399.449 14.134 380.391 14.134 363.35 L 14.134 308.521 C 14.204 308.573 14.279 308.623 14.349 308.674 C 20.173 312.989 26.649 316.316 33.327 319.096 C 53.186 327.364 74.63 331.109 95.977 332.836 C 108.125 333.82 120.342 334.002 132.517 333.443 C 133.02 333.42 133.527 333.411 134.03 333.386 L 134.03 399.043 C 129.032 399.312 123.988 399.449 118.961 399.449 Z M 359.323 421.734 C 359.323 429.779 348.85 438.664 331.309 445.504 C 310.915 453.455 283.636 457.833 254.496 457.833 C 225.356 457.833 198.077 453.454 177.683 445.504 C 160.142 438.665 149.669 429.779 149.669 421.734 L 149.669 366.905 C 149.739 366.957 149.814 367.007 149.884 367.058 C 178.815 388.512 219.6 392.15 254.496 392.15 C 285.533 392.15 314.829 387.393 336.989 378.752 C 344.722 375.737 352.337 371.984 359.029 366.977 C 359.125 366.905 359.228 366.836 359.323 366.764 L 359.323 421.734 Z M 494.857 363.35 C 494.857 371.395 484.384 380.28 466.843 387.12 C 446.449 395.071 419.17 399.449 390.03 399.449 C 385.005 399.449 379.96 399.312 374.961 399.042 L 374.961 340.413 L 374.961 333.386 C 375.462 333.411 375.97 333.42 376.473 333.443 C 380.988 333.648 385.51 333.766 390.031 333.766 C 404.084 333.766 417.842 332.79 430.922 330.867 C 435.194 330.238 438.149 326.266 437.519 321.993 C 436.89 317.721 432.923 314.766 428.645 315.396 C 416.317 317.209 403.325 318.129 390.031 318.129 C 385.273 318.129 380.514 317.989 375.761 317.755 C 375.494 317.741 375.227 317.73 374.96 317.715 L 374.96 259.093 L 374.96 252.062 C 375.36 252.083 375.763 252.089 376.163 252.108 C 398.981 253.181 422.525 251.985 445.046 247.175 C 462.239 243.503 480.315 237.922 494.562 227.274 C 494.658 227.202 494.761 227.133 494.856 227.061 L 494.856 282.03 C 494.856 291.391 480.984 301.6 458.652 308.676 C 454.536 309.98 452.256 314.375 453.56 318.492 C 454.863 322.608 459.256 324.892 463.376 323.584 C 474.037 320.207 484.509 315.857 493.657 309.336 C 494.062 309.045 494.465 308.755 494.856 308.461 L 494.856 363.35 L 494.857 363.35 Z" style="stroke: rgb(0, 0, 0); stroke-width: 23px;"/>
  <g transform="matrix(1, 0, 0, 1, 10.07886, 17.85799)"/>
  <g transform="matrix(1, 0, 0, 1, 10.07886, 17.85799)"/>
  <g transform="matrix(1, 0, 0, 1, 10.07886, 17.85799)"/>
  <g transform="matrix(1, 0, 0, 1, 10.07886, 17.85799)"/>
  <g transform="matrix(1, 0, 0, 1, 10.07886, 17.85799)"/>
  <g transform="matrix(1, 0, 0, 1, 10.07886, 17.85799)"/>
  <g transform="matrix(1, 0, 0, 1, 10.07886, 17.85799)"/>
  <g transform="matrix(1, 0, 0, 1, 10.07886, 17.85799)"/>
  <g transform="matrix(1, 0, 0, 1, 10.07886, 17.85799)"/>
  <g transform="matrix(1, 0, 0, 1, 10.07886, 17.85799)"/>
  <g transform="matrix(1, 0, 0, 1, 10.07886, 17.85799)"/>
  <g transform="matrix(1, 0, 0, 1, 10.07886, 17.85799)"/>
  <g transform="matrix(1, 0, 0, 1, 10.07886, 17.85799)"/>
  <g transform="matrix(1, 0, 0, 1, 10.07886, 17.85799)"/>
  <g transform="matrix(1, 0, 0, 1, 10.07886, 17.85799)"/>
</svg>