<?xml version="1.0" encoding="iso-8859-1"?>
<!-- Generator: Adobe Illustrator 19.0.0, SVG Export Plug-In . SVG Version: 6.00 Build 0)  -->
<svg version="1.1" id="Layer_1" xmlns="http://www.w3.org/2000/svg" xmlns:xlink="http://www.w3.org/1999/xlink" x="0px" y="0px"
	 viewBox="0 0 512 512" style="enable-background:new 0 0 512 512;" xml:space="preserve">
<g>
	<polygon style="fill:#FED159;" points="223.419,256.1 43.122,256.1 9.565,393.549 256.975,393.549 	"/>
	<polygon style="fill:#FED159;" points="470.828,256.1 290.531,256.1 256.975,393.549 504.384,393.549 	"/>
	<polygon style="fill:#FED159;" points="347.124,118.65 166.826,118.65 133.27,256.1 380.68,256.1 	"/>
</g>
<g>
	<polygon style="fill:#F6C454;" points="166.826,118.65 133.27,256.1 171.069,256.1 204.625,118.65 	"/>
	<polygon style="fill:#F6C454;" points="43.122,256.1 9.565,393.549 47.364,393.549 80.92,256.1 	"/>
	<polygon style="fill:#F6C454;" points="290.531,256.1 256.975,393.549 294.774,393.549 328.33,256.1 	"/>
</g>
<g>
	<polygon style="fill:#FFE4A9;" points="347.124,118.65 380.68,256.1 342.881,256.1 309.325,118.65 	"/>
	<polygon style="fill:#FFE4A9;" points="470.828,256.1 504.384,393.549 466.586,393.549 433.03,256.1 	"/>
	<polygon style="fill:#FFE4A9;" points="223.419,256.1 256.975,393.549 219.176,393.549 185.62,256.1 	"/>
</g>
<path d="M511.755,391.412L478.2,253.962c-0.939-3.846-4.386-6.553-8.345-6.553h-83.403l-31.956-130.897
	c-0.939-3.846-4.386-6.553-8.345-6.553H165.851c-3.96,0-7.406,2.707-8.345,6.553l-9.168,37.556
	c-1.125,4.609,1.699,9.258,6.308,10.383c4.613,1.128,9.258-1.7,10.383-6.308l7.568-31.003h166.807l29.36,120.268H143.235
	l14.48-59.313c1.125-4.609-1.699-9.258-6.308-10.383c-4.609-1.124-9.258,1.7-10.383,6.308L125.55,247.41H42.147
	c-3.96,0-7.406,2.707-8.345,6.553L0.245,391.412c-0.625,2.562-0.04,5.269,1.589,7.343c1.629,2.074,4.12,3.285,6.757,3.285h392.88
	c4.744,0,8.591-3.846,8.591-8.591c0-4.744-3.846-8.591-8.591-8.591H266.94l29.362-120.268h166.807l29.36,120.268h-60.071
	c-4.744,0-8.591,3.846-8.591,8.591c0,4.744,3.846,8.591,8.591,8.591h71.012c2.637,0,5.128-1.211,6.757-3.285
	C511.795,396.681,512.38,393.974,511.755,391.412z M19.531,384.859l29.362-120.268h166.807l29.36,120.268H19.531z M256,357.227
	l-22.615-92.637h45.231L256,357.227z"/>
<g>
</g>
<g>
</g>
<g>
</g>
<g>
</g>
<g>
</g>
<g>
</g>
<g>
</g>
<g>
</g>
<g>
</g>
<g>
</g>
<g>
</g>
<g>
</g>
<g>
</g>
<g>
</g>
<g>
</g>
</svg>
