<?xml version="1.0" encoding="utf-8"?>
<svg version="1.1" id="Layer_1" x="0px" y="0px" viewBox="0 0 512.001 512.001" style="enable-background:new 0 0 512.001 512.001;" xmlns="http://www.w3.org/2000/svg">
  <path style="fill:#FF5E8A;" d="M497.418,182.556C493.86,116.071,439.492,61.16,372.911,61.16 c-65.503,0-116.895,73.036-116.895,73.036S207.539,61.16,139.093,61.16c-66.576,0-120.941,54.911-124.501,121.397 c-2.004,37.56,10.104,66.145,27.163,92.033c34.089,51.724,183.127,176.249,214.48,176.249c31.999,0,179.71-124.072,214.026-176.249 C487.357,248.583,499.432,220.116,497.418,182.556z M433.718,244.847l-41.743,41.743l-35.414-35.414l-35.414,35.414l-41.743-41.743 l35.414-35.414l-35.414-35.414l41.743-41.743l35.414,35.414l35.414-35.414l41.743,41.743l-35.414,35.414L433.718,244.847z"/>
  <g>
    <rect x="327.037" y="129.84" transform="matrix(0.7071 0.7071 -0.7071 0.7071 252.5262 -190.7814)" style="fill:#BBDCE3;" width="59.039" height="159.191"/>
    <rect x="292.947" y="141.334" transform="matrix(-0.7071 -0.7071 0.7071 -0.7071 422.0273 516.5173)" style="fill:#BBDCE3;" width="50.081" height="59.039"/>
    <rect x="370.094" y="218.5" transform="matrix(0.7071 0.7071 -0.7071 0.7071 291.1088 -206.759)" style="fill:#BBDCE3;" width="50.082" height="59.039"/>
  </g>
  <path d="M511.763,181.789c-1.925-35.964-17.153-69.735-42.881-95.093c-26.105-25.731-60.188-39.9-95.972-39.9 c-53.129,0-96.55,41.179-116.648,64.164c-19.518-23.13-61.927-64.164-117.171-64.164c-35.78,0-69.863,14.171-95.967,39.9 C17.4,112.055,2.171,145.827,0.247,181.791c-1.911,35.774,7.193,66.831,29.513,100.704c20.068,30.449,72.394,78.655,111.103,110.685 c39.713,32.858,91.964,72.026,115.371,72.026c23.764,0,75.828-39.084,115.32-71.871c38.413-31.893,90.458-80.06,110.709-110.854 C497.288,259.627,514.215,227.53,511.763,181.789z M458.259,266.698c-14.878,22.623-56.752,64.344-104.196,103.818 c-56.938,47.373-90.252,65.6-97.748,65.961c-7.613-0.457-41.01-18.87-98.222-66.332c-47.716-39.584-89.647-81.162-104.343-103.458 c-18.722-28.411-26.374-54.121-24.814-83.363c3.182-59.441,52.596-107.799,110.156-107.799c59.764,0,104.522,65.965,104.955,66.615 c2.62,3.947,7.024,6.342,11.762,6.411c0.07,0.001,0.142,0.001,0.213,0.001c4.657,0,9.037-2.267,11.732-6.076 c0.474-0.669,48.022-66.951,105.157-66.951c57.562,0,106.982,48.358,110.163,107.799l0,0 C484.659,212.891,477.238,237.825,458.259,266.698z" style="stroke: rgb(0, 0, 0); stroke-width: 32px;"/>
  <path d="M103.268,234.059c-11.904-18.067-16.001-30.958-15.115-47.564c1.064-19.894,12.999-38.27,30.406-46.813 c6.56-3.221,13.47-4.854,20.533-4.854c7.932,0,14.365-6.431,14.365-14.365s-6.433-14.365-14.365-14.365 c-11.491,0-22.658,2.623-33.193,7.794c-26.597,13.055-44.823,40.952-46.433,71.071c-1.222,22.889,4.519,41.693,19.814,64.905 c4.305,6.533,19.005,24.114,29.128,34.836c2.827,2.992,6.632,4.503,10.448,4.503c3.538,0,7.083-1.3,9.859-3.92 c5.769-5.447,6.029-14.539,0.583-20.306C119.147,254.227,106.09,238.34,103.268,234.059z"/>
  <path d="M150.805,290.17h-0.014c-7.932,0-14.358,6.431-14.358,14.365c0,7.934,6.438,14.365,14.372,14.365 c7.934,0,14.365-6.431,14.365-14.365C165.17,296.601,158.739,290.17,150.805,290.17z"/>
  <path d="M443.876,163.862l-41.745-41.745c-2.695-2.693-6.348-4.207-10.158-4.207c-0.477,0-0.95,0.023-1.419,0.07 c-3.288,0.326-6.379,1.78-8.738,4.137l-25.256,25.256l-25.255-25.255c-2.695-2.693-6.348-4.207-10.157-4.207 s-7.463,1.514-10.157,4.207l-41.745,41.745c-2.805,2.805-4.207,6.481-4.207,10.157c0,2.298,0.547,4.595,1.643,6.681 c0.658,1.251,1.513,2.425,2.564,3.478l25.255,25.255l-25.255,25.255c-0.34,0.34-0.662,0.698-0.964,1.067 c-0.217,0.264-0.409,0.54-0.605,0.816c-0.075,0.106-0.159,0.207-0.231,0.315c-0.236,0.353-0.448,0.717-0.649,1.085 c-0.022,0.04-0.047,0.078-0.069,0.116c-0.203,0.381-0.384,0.77-0.55,1.165c-0.014,0.034-0.033,0.069-0.047,0.103 c-0.157,0.379-0.29,0.766-0.414,1.155c-0.017,0.057-0.042,0.112-0.059,0.17c-0.112,0.369-0.2,0.743-0.282,1.119 c-0.019,0.083-0.045,0.164-0.06,0.249c-0.073,0.368-0.122,0.738-0.165,1.109c-0.011,0.095-0.032,0.188-0.042,0.284 c-0.091,0.935-0.091,1.878,0,2.813c0.009,0.089,0.027,0.174,0.037,0.263c0.045,0.379,0.095,0.757,0.17,1.131 c0.014,0.075,0.039,0.148,0.055,0.221c0.083,0.385,0.174,0.767,0.287,1.145c0.014,0.047,0.033,0.092,0.047,0.138 c0.125,0.401,0.264,0.797,0.425,1.188c0.009,0.022,0.02,0.042,0.029,0.062c0.171,0.409,0.359,0.812,0.57,1.207 c0.01,0.019,0.023,0.037,0.033,0.057c0.21,0.389,0.435,0.771,0.685,1.145c0.047,0.07,0.103,0.136,0.151,0.207 c0.217,0.315,0.44,0.626,0.685,0.925c0.302,0.369,0.622,0.724,0.961,1.064l41.745,41.743c0.351,0.35,0.715,0.679,1.092,0.987 c5.268,4.295,12.867,4.295,18.133,0c0.376-0.307,0.741-0.635,1.092-0.987l25.255-25.255l25.255,25.255 c2.805,2.805,6.481,4.207,10.157,4.207s7.352-1.402,10.157-4.207l41.745-41.743c5.609-5.61,5.609-14.705,0-20.315l-25.255-25.256 l25.255-25.255c1.052-1.052,1.906-2.227,2.564-3.478c1.096-2.084,1.643-4.383,1.643-6.681 C448.083,170.343,446.681,166.667,443.876,163.862z M321.149,152.591l15.098,15.099l-21.428,21.428l-15.098-15.098L321.149,152.591z M299.721,244.847l35.171-35.171l31.828-31.828c0.003-0.003,0.004-0.004,0.007-0.007l25.248-25.249l21.428,21.428l-25.255,25.255 l-41.745,41.745l-25.255,25.256L299.721,244.847z M391.974,266.275l-15.098-15.098l21.428-21.428l15.098,15.098L391.974,266.275z"/>
  <g/>
  <g/>
  <g/>
  <g/>
  <g/>
  <g/>
  <g/>
  <g/>
  <g/>
  <g/>
  <g/>
  <g/>
  <g/>
  <g/>
  <g/>
</svg>